<svg width="358" height="358" viewBox="0 0 358 358" fill="none" xmlns="http://www.w3.org/2000/svg">
<rect width="358" height="358" fill="white" style="fill:white;fill-opacity:1;"/>
<path d="M205.857 28.0002C140.365 28.0002 85.5015 73.5046 71.1575 134.621C68.6036 145.503 61.7773 154.986 52.8044 161.652C29.9197 178.652 15.0913 205.887 15.0913 236.585C15.0916 288.106 56.8569 329.871 108.377 329.871C128.274 329.871 146.715 323.641 161.858 313.027C170.996 306.622 182.121 303.139 193.235 304.146C197.392 304.522 201.602 304.715 205.857 304.715C282.27 304.715 344.214 242.77 344.214 166.358C344.214 89.9449 282.27 28.0003 205.857 28.0002Z" fill="url(#paint0_linear_4448_17954)"/>
<g opacity="0.2" filter="url(#filter0_f_4448_17954)">
<path d="M163.999 41C187.227 59.4709 230.244 79.7587 278.027 79.7587C292.406 151.22 289.973 301.894 164 322C38.0271 301.894 35.5937 151.22 49.9728 79.7587C97.7554 79.7586 140.772 59.4709 163.999 41Z" fill="#59667A" style="fill:#59667A;fill:color(display-p3 0.3475 0.4011 0.4795);fill-opacity:1;"/>
</g>
<path d="M178.502 35.4862C197.247 50.2549 232.944 66.9797 272.288 66.9797H284.808L287.287 79.1848C294.126 112.858 297.095 165.354 282.985 212.517C268.655 260.416 235.923 304.417 171.403 314.62L169 315L166.597 314.62C102.077 304.418 69.3446 260.416 55.0146 212.517C40.9046 165.354 43.8741 112.858 50.713 79.1848L53.192 66.9797H65.7118C105.056 66.9797 140.751 50.2549 159.497 35.4862L169 28L178.502 35.4862ZM169 47.4142C147.96 63.9905 108.995 82.1972 65.7124 82.1974L65.4098 83.7132C52.7785 148.179 55.759 280.641 167.668 299.375L169 299.591C282.217 281.688 285.271 148.434 272.59 83.7132L272.288 82.1974C229.006 82.1974 190.04 63.9905 169 47.4142Z" fill="url(#paint1_linear_4448_17954)"/>
<g filter="url(#filter1_d_4448_17954)">
<path d="M167.999 47C188.905 63.6304 227.62 81.8966 270.625 81.8966C283.566 146.237 281.375 281.897 168 300C54.6244 281.897 52.4344 146.237 65.3755 81.8966C108.38 81.8965 147.094 63.6304 167.999 47Z" fill="url(#paint2_linear_4448_17954)"/>
</g>
<path d="M168.892 47.4141C189.816 63.9904 228.567 82.1973 271.611 82.1973C284.555 146.284 282.375 281.359 169.127 299.552C168.833 298.337 168.675 297.06 168.675 295.731V49.9707C168.675 49.2128 168.619 48.4575 168.513 47.71C168.639 47.6107 168.766 47.5132 168.892 47.4141Z" fill="#EEF2F6" style="fill:#EEF2F6;fill:color(display-p3 0.9333 0.9490 0.9647);fill-opacity:1;"/>
<rect x="96" y="116" width="147" height="14" rx="7" fill="url(#paint3_linear_4448_17954)"/>
<rect x="97" y="117" width="35" height="12" rx="6" fill="#EF4444" style="fill:#EF4444;fill:color(display-p3 0.9373 0.2667 0.2667);fill-opacity:1;"/>
<rect x="97" y="117" width="35" height="12" rx="6" fill="url(#paint4_radial_4448_17954)" style="mix-blend-mode:overlay"/>
<g filter="url(#filter2_d_4448_17954)">
<circle cx="134" cy="123" r="11" fill="#EF4444" style="fill:#EF4444;fill:color(display-p3 0.9373 0.2667 0.2667);fill-opacity:1;"/>
<circle cx="134" cy="123" r="11" fill="url(#paint5_radial_4448_17954)" style="mix-blend-mode:overlay"/>
</g>
<rect x="96" y="156" width="147" height="15" rx="7.5" fill="url(#paint6_linear_4448_17954)"/>
<rect x="96" y="201" width="147" height="15" rx="7.5" fill="url(#paint7_linear_4448_17954)"/>
<rect x="97" y="157" width="27" height="13" rx="6.5" fill="#EF4444" style="fill:#EF4444;fill:color(display-p3 0.9373 0.2667 0.2667);fill-opacity:1;"/>
<rect x="97" y="157" width="27" height="13" rx="6.5" fill="url(#paint8_radial_4448_17954)" style="mix-blend-mode:overlay"/>
<rect x="97" y="202" width="33" height="13" rx="6.5" fill="#EF4444" style="fill:#EF4444;fill:color(display-p3 0.9373 0.2667 0.2667);fill-opacity:1;"/>
<rect x="97" y="202" width="33" height="13" rx="6.5" fill="url(#paint9_radial_4448_17954)" style="mix-blend-mode:overlay"/>
<g filter="url(#filter3_d_4448_17954)">
<circle cx="124" cy="164" r="11" fill="#EF4444" style="fill:#EF4444;fill:color(display-p3 0.9373 0.2667 0.2667);fill-opacity:1;"/>
<circle cx="124" cy="164" r="11" fill="url(#paint10_radial_4448_17954)" style="mix-blend-mode:overlay"/>
</g>
<g filter="url(#filter4_d_4448_17954)">
<ellipse cx="128" cy="208.5" rx="11" ry="10.5" fill="#EF4444" style="fill:#EF4444;fill:color(display-p3 0.9373 0.2667 0.2667);fill-opacity:1;"/>
<ellipse cx="128" cy="208.5" rx="11" ry="10.5" fill="url(#paint11_radial_4448_17954)" style="mix-blend-mode:overlay"/>
</g>
<circle cx="36" cy="47" r="6" fill="#E9EEF4" style="fill:#E9EEF4;fill:color(display-p3 0.9137 0.9333 0.9569);fill-opacity:1;"/>
<circle cx="317" cy="38" r="5" fill="#E9EEF4" style="fill:#E9EEF4;fill:color(display-p3 0.9137 0.9333 0.9569);fill-opacity:1;"/>
<circle cx="340" cy="295" r="5" fill="#B5BFCC" style="fill:#B5BFCC;fill:color(display-p3 0.7098 0.7490 0.8000);fill-opacity:1;"/>
<circle cx="55" cy="331" r="5" fill="#C5CDD7" style="fill:#C5CDD7;fill:color(display-p3 0.7725 0.8039 0.8431);fill-opacity:1;"/>
<path d="M208 258C208 249.163 215.163 242 224 242H306C314.837 242 322 249.163 322 258V314C322 322.837 314.837 330 306 330H224C215.163 330 208 322.837 208 314V258Z" fill="#EF4444" style="fill:#EF4444;fill:color(display-p3 0.9373 0.2667 0.2667);fill-opacity:1;"/>
<path d="M208 258C208 249.163 215.163 242 224 242H306C314.837 242 322 249.163 322 258V314C322 322.837 314.837 330 306 330H224C215.163 330 208 322.837 208 314V258Z" fill="url(#paint12_radial_4448_17954)" style="mix-blend-mode:overlay"/>
<path d="M284.11 225.227C284.11 214.608 275.554 206 265 206C254.446 206 245.89 214.608 245.89 225.227V242H228V225.227C228 204.667 244.565 188 265 188C285.435 188 302 204.667 302 225.227V242H284.11V225.227Z" fill="#EF4444" style="fill:#EF4444;fill:color(display-p3 0.9373 0.2667 0.2667);fill-opacity:1;"/>
<path d="M284.11 225.227C284.11 214.608 275.554 206 265 206C254.446 206 245.89 214.608 245.89 225.227V242H228V225.227C228 204.667 244.565 188 265 188C285.435 188 302 204.667 302 225.227V242H284.11V225.227Z" fill="white" fill-opacity="0.7" style="fill:white;fill-opacity:0.7;mix-blend-mode:soft-light"/>
<path d="M265 268C271.627 268 277 272.994 277 279.155C277 282.886 275.027 286.187 272 288.212V294.493C272 298.087 268.866 301 265 301C261.134 301 258 298.087 258 294.493V288.212C254.973 286.187 253 282.886 253 279.155C253 272.994 258.373 268 265 268Z" fill="#EF4444" style="fill:#EF4444;fill:color(display-p3 0.9373 0.2667 0.2667);fill-opacity:1;"/>
<path d="M265 268C271.627 268 277 272.994 277 279.155C277 282.886 275.027 286.187 272 288.212V294.493C272 298.087 268.866 301 265 301C261.134 301 258 298.087 258 294.493V288.212C254.973 286.187 253 282.886 253 279.155C253 272.994 258.373 268 265 268Z" fill="url(#paint13_linear_4448_17954)" style="mix-blend-mode:overlay"/>
<defs>
<filter id="filter0_f_4448_17954" x="23.4228" y="20.4228" width="281.154" height="322.154" filterUnits="userSpaceOnUse" color-interpolation-filters="sRGB">
<feFlood flood-opacity="0" result="BackgroundImageFix"/>
<feBlend mode="normal" in="SourceGraphic" in2="BackgroundImageFix" result="shape"/>
<feGaussianBlur stdDeviation="10.2886" result="effect1_foregroundBlur_4448_17954"/>
</filter>
<filter id="filter1_d_4448_17954" x="45" y="38" width="248" height="285" filterUnits="userSpaceOnUse" color-interpolation-filters="sRGB">
<feFlood flood-opacity="0" result="BackgroundImageFix"/>
<feColorMatrix in="SourceAlpha" type="matrix" values="0 0 0 0 0 0 0 0 0 0 0 0 0 0 0 0 0 0 127 0" result="hardAlpha"/>
<feOffset dx="1" dy="7"/>
<feGaussianBlur stdDeviation="8"/>
<feComposite in2="hardAlpha" operator="out"/>
<feColorMatrix type="matrix" values="0 0 0 0 0 0 0 0 0 0 0 0 0 0 0 0 0 0 0.15 0"/>
<feBlend mode="normal" in2="BackgroundImageFix" result="effect1_dropShadow_4448_17954"/>
<feBlend mode="normal" in="SourceGraphic" in2="effect1_dropShadow_4448_17954" result="shape"/>
</filter>
<filter id="filter2_d_4448_17954" x="111" y="104" width="46" height="46" filterUnits="userSpaceOnUse" color-interpolation-filters="sRGB">
<feFlood flood-opacity="0" result="BackgroundImageFix"/>
<feColorMatrix in="SourceAlpha" type="matrix" values="0 0 0 0 0 0 0 0 0 0 0 0 0 0 0 0 0 0 127 0" result="hardAlpha"/>
<feOffset dy="4"/>
<feGaussianBlur stdDeviation="6"/>
<feComposite in2="hardAlpha" operator="out"/>
<feColorMatrix type="matrix" values="0 0 0 0 0 0 0 0 0 0 0 0 0 0 0 0 0 0 0.15 0"/>
<feBlend mode="normal" in2="BackgroundImageFix" result="effect1_dropShadow_4448_17954"/>
<feBlend mode="normal" in="SourceGraphic" in2="effect1_dropShadow_4448_17954" result="shape"/>
</filter>
<filter id="filter3_d_4448_17954" x="101" y="145" width="46" height="46" filterUnits="userSpaceOnUse" color-interpolation-filters="sRGB">
<feFlood flood-opacity="0" result="BackgroundImageFix"/>
<feColorMatrix in="SourceAlpha" type="matrix" values="0 0 0 0 0 0 0 0 0 0 0 0 0 0 0 0 0 0 127 0" result="hardAlpha"/>
<feOffset dy="4"/>
<feGaussianBlur stdDeviation="6"/>
<feComposite in2="hardAlpha" operator="out"/>
<feColorMatrix type="matrix" values="0 0 0 0 0 0 0 0 0 0 0 0 0 0 0 0 0 0 0.15 0"/>
<feBlend mode="normal" in2="BackgroundImageFix" result="effect1_dropShadow_4448_17954"/>
<feBlend mode="normal" in="SourceGraphic" in2="effect1_dropShadow_4448_17954" result="shape"/>
</filter>
<filter id="filter4_d_4448_17954" x="105" y="190" width="46" height="45" filterUnits="userSpaceOnUse" color-interpolation-filters="sRGB">
<feFlood flood-opacity="0" result="BackgroundImageFix"/>
<feColorMatrix in="SourceAlpha" type="matrix" values="0 0 0 0 0 0 0 0 0 0 0 0 0 0 0 0 0 0 127 0" result="hardAlpha"/>
<feOffset dy="4"/>
<feGaussianBlur stdDeviation="6"/>
<feComposite in2="hardAlpha" operator="out"/>
<feColorMatrix type="matrix" values="0 0 0 0 0 0 0 0 0 0 0 0 0 0 0 0 0 0 0.15 0"/>
<feBlend mode="normal" in2="BackgroundImageFix" result="effect1_dropShadow_4448_17954"/>
<feBlend mode="normal" in="SourceGraphic" in2="effect1_dropShadow_4448_17954" result="shape"/>
</filter>
<linearGradient id="paint0_linear_4448_17954" x1="205.857" y1="28.0002" x2="205.857" y2="315.197" gradientUnits="userSpaceOnUse">
<stop offset="0.198738" stop-color="#EEF2F6" stop-opacity="0.6" style="stop-color:#EEF2F6;stop-color:color(display-p3 0.9333 0.9490 0.9647);stop-opacity:0.6;"/>
<stop offset="1" stop-color="#E7EDF3" style="stop-color:#E7EDF3;stop-color:color(display-p3 0.9067 0.9300 0.9533);stop-opacity:1;"/>
</linearGradient>
<linearGradient id="paint1_linear_4448_17954" x1="169" y1="28" x2="169" y2="315" gradientUnits="userSpaceOnUse">
<stop stop-color="#B5BFCC" style="stop-color:#B5BFCC;stop-color:color(display-p3 0.7098 0.7490 0.8000);stop-opacity:1;"/>
<stop offset="1" stop-color="#9AA4B2" style="stop-color:#9AA4B2;stop-color:color(display-p3 0.6039 0.6431 0.6980);stop-opacity:1;"/>
</linearGradient>
<linearGradient id="paint2_linear_4448_17954" x1="168" y1="47" x2="168" y2="300" gradientUnits="userSpaceOnUse">
<stop stop-color="#FCFCFD" style="stop-color:#FCFCFD;stop-color:color(display-p3 0.9882 0.9882 0.9922);stop-opacity:1;"/>
<stop offset="1" stop-color="#EEF2F6" style="stop-color:#EEF2F6;stop-color:color(display-p3 0.9333 0.9490 0.9647);stop-opacity:1;"/>
</linearGradient>
<linearGradient id="paint3_linear_4448_17954" x1="169.5" y1="116" x2="169.5" y2="130" gradientUnits="userSpaceOnUse">
<stop stop-color="#C5CDD7" style="stop-color:#C5CDD7;stop-color:color(display-p3 0.7725 0.8039 0.8431);stop-opacity:1;"/>
<stop offset="1" stop-color="#D6DCE6" style="stop-color:#D6DCE6;stop-color:color(display-p3 0.8379 0.8646 0.9018);stop-opacity:1;"/>
</linearGradient>
<radialGradient id="paint4_radial_4448_17954" cx="0" cy="0" r="1" gradientTransform="matrix(22.75 9.61882 -32.1087 10.369 104.875 118.21)" gradientUnits="userSpaceOnUse">
<stop stop-opacity="0" style="stop-color:none;stop-opacity:0;"/>
<stop offset="1" stop-opacity="0.4" style="stop-color:black;stop-opacity:0.4;"/>
</radialGradient>
<radialGradient id="paint5_radial_4448_17954" cx="0" cy="0" r="1" gradientUnits="userSpaceOnUse" gradientTransform="translate(127.95 114.218) rotate(54.7514) scale(22.7039 16.564)">
<stop offset="0.506002" stop-color="white" stop-opacity="0" style="stop-color:none;stop-opacity:0;"/>
<stop offset="1" stop-color="white" stop-opacity="0.3" style="stop-color:white;stop-opacity:0.3;"/>
</radialGradient>
<linearGradient id="paint6_linear_4448_17954" x1="169.5" y1="156" x2="169.5" y2="171" gradientUnits="userSpaceOnUse">
<stop stop-color="#C5CDD7" style="stop-color:#C5CDD7;stop-color:color(display-p3 0.7725 0.8039 0.8431);stop-opacity:1;"/>
<stop offset="1" stop-color="#D6DCE6" style="stop-color:#D6DCE6;stop-color:color(display-p3 0.8379 0.8646 0.9018);stop-opacity:1;"/>
</linearGradient>
<linearGradient id="paint7_linear_4448_17954" x1="169.5" y1="201" x2="169.5" y2="216" gradientUnits="userSpaceOnUse">
<stop stop-color="#C5CDD7" style="stop-color:#C5CDD7;stop-color:color(display-p3 0.7725 0.8039 0.8431);stop-opacity:1;"/>
<stop offset="1" stop-color="#D6DCE6" style="stop-color:#D6DCE6;stop-color:color(display-p3 0.8379 0.8646 0.9018);stop-opacity:1;"/>
</linearGradient>
<radialGradient id="paint8_radial_4448_17954" cx="0" cy="0" r="1" gradientTransform="matrix(17.55 10.4204 -24.7696 11.2331 103.075 158.311)" gradientUnits="userSpaceOnUse">
<stop stop-opacity="0" style="stop-color:none;stop-opacity:0;"/>
<stop offset="1" stop-opacity="0.4" style="stop-color:black;stop-opacity:0.4;"/>
</radialGradient>
<radialGradient id="paint9_radial_4448_17954" cx="0" cy="0" r="1" gradientTransform="matrix(21.45 10.4204 -30.2739 11.2331 104.425 203.311)" gradientUnits="userSpaceOnUse">
<stop stop-opacity="0" style="stop-color:none;stop-opacity:0;"/>
<stop offset="1" stop-opacity="0.4" style="stop-color:black;stop-opacity:0.4;"/>
</radialGradient>
<radialGradient id="paint10_radial_4448_17954" cx="0" cy="0" r="1" gradientUnits="userSpaceOnUse" gradientTransform="translate(117.95 155.218) rotate(54.7514) scale(22.7039 16.564)">
<stop offset="0.506002" stop-color="white" stop-opacity="0" style="stop-color:none;stop-opacity:0;"/>
<stop offset="1" stop-color="white" stop-opacity="0.3" style="stop-color:white;stop-opacity:0.3;"/>
</radialGradient>
<radialGradient id="paint11_radial_4448_17954" cx="0" cy="0" r="1" gradientTransform="matrix(13.103 17.6985 -13.5271 9.12498 121.95 200.118)" gradientUnits="userSpaceOnUse">
<stop offset="0.506002" stop-color="white" stop-opacity="0" style="stop-color:none;stop-opacity:0;"/>
<stop offset="1" stop-color="white" stop-opacity="0.3" style="stop-color:white;stop-opacity:0.3;"/>
</radialGradient>
<radialGradient id="paint12_radial_4448_17954" cx="0" cy="0" r="1" gradientTransform="matrix(74.1 65.45 -104.583 70.5544 233.65 250.233)" gradientUnits="userSpaceOnUse">
<stop stop-opacity="0" style="stop-color:none;stop-opacity:0;"/>
<stop offset="1" stop-opacity="0.4" style="stop-color:black;stop-opacity:0.4;"/>
</radialGradient>
<linearGradient id="paint13_linear_4448_17954" x1="265" y1="268" x2="265" y2="301" gradientUnits="userSpaceOnUse">
<stop stop-opacity="0.7" style="stop-color:black;stop-opacity:0.7;"/>
<stop offset="1" stop-opacity="0.4" style="stop-color:black;stop-opacity:0.4;"/>
</linearGradient>
</defs>
</svg>
