<svg width="478" height="478" viewBox="0 0 478 478" fill="none" xmlns="http://www.w3.org/2000/svg">
<g filter="url(#filter0_d_4450_18483)">
<path d="M28 56C28 33.9086 45.9086 16 68 16H410C432.091 16 450 33.9086 450 56V398C450 420.091 432.091 438 410 438H68C45.9086 438 28 420.091 28 398V56Z" fill="#C5CDD7" style="fill:#C5CDD7;fill:color(display-p3 0.7725 0.8039 0.8431);fill-opacity:1;"/>
<path d="M265.857 82C200.365 82 145.502 127.504 131.158 188.621C128.604 199.503 121.777 208.986 112.804 215.652C89.9197 232.652 75.0913 259.887 75.0913 290.585C75.0916 342.105 116.857 383.871 168.377 383.871C188.274 383.871 206.715 377.641 221.858 367.027C230.996 360.621 242.121 357.139 253.235 358.146C257.392 358.522 261.602 358.715 265.857 358.715C342.27 358.715 404.214 296.77 404.214 220.357C404.214 143.945 342.27 82.0001 265.857 82Z" fill="url(#paint0_linear_4450_18483)"/>
<circle cx="104" cy="97.5508" r="5" fill="#F5F7FA" style="fill:#F5F7FA;fill:color(display-p3 0.9608 0.9686 0.9804);fill-opacity:1;"/>
<circle cx="372" cy="92.5508" r="5" fill="#E9EEF4" style="fill:#E9EEF4;fill:color(display-p3 0.9137 0.9333 0.9569);fill-opacity:1;"/>
<circle cx="382" cy="340.551" r="5" fill="#B5BFCC" style="fill:#B5BFCC;fill:color(display-p3 0.7098 0.7490 0.8000);fill-opacity:1;"/>
<circle cx="94" cy="372.551" r="5" fill="#C5CDD7" style="fill:#C5CDD7;fill:color(display-p3 0.7725 0.8039 0.8431);fill-opacity:1;"/>
<g filter="url(#filter1_d_4450_18483)">
<path d="M127.782 134.135C127.782 125.776 134.558 119 142.917 119H340.936C349.294 119 356.071 125.776 356.071 134.135V235.036H127.782V134.135Z" fill="#D6DCE6" style="fill:#D6DCE6;fill:color(display-p3 0.8379 0.8646 0.9018);fill-opacity:1;"/>
</g>
<path d="M139.765 142.332C139.765 136.76 144.282 132.242 149.855 132.242H333.999C339.572 132.242 344.089 136.76 344.089 142.332V235.035H139.765V142.332Z" fill="#9AA4B2" style="fill:#9AA4B2;fill:color(display-p3 0.6039 0.6431 0.6980);fill-opacity:1;"/>
<path d="M162.01 132.242H323.105L356.071 226.837H129.044L162.01 132.242Z" fill="url(#paint1_linear_4450_18483)"/>
<path d="M167.826 132.242H317.286L347.872 226.837H137.241L167.826 132.242Z" fill="url(#paint2_linear_4450_18483)"/>
<path d="M240.198 143.612C241.135 145.008 242.705 145.845 244.386 145.845H301.206C306.779 145.845 311.296 150.362 311.296 155.935V221.163C311.296 226.735 306.779 231.253 301.206 231.253H174.449V146.117C174.449 140.545 178.967 136.027 184.539 136.027L232.416 136.028C234.097 136.028 235.668 136.865 236.605 138.26L240.198 143.612Z" fill="#EF4444" style="fill:#EF4444;fill:color(display-p3 0.9373 0.2667 0.2667);fill-opacity:1;"/>
<path d="M240.198 143.612C241.135 145.008 242.705 145.845 244.386 145.845H301.206C306.779 145.845 311.296 150.362 311.296 155.935V221.163C311.296 226.735 306.779 231.253 301.206 231.253H174.449V146.117C174.449 140.545 178.967 136.027 184.539 136.027L232.416 136.028C234.097 136.028 235.668 136.865 236.605 138.26L240.198 143.612Z" fill="url(#paint3_linear_4450_18483)" style="mix-blend-mode:overlay"/>
<path d="M240.047 159.411C240.983 160.81 242.556 161.65 244.239 161.65H310.035C315.607 161.65 320.125 166.167 320.125 171.74V258.37H165.62V160.622C165.62 155.05 170.138 150.532 175.71 150.532L231.409 150.533C233.093 150.533 234.665 151.372 235.602 152.771L240.047 159.411Z" fill="#EF4444" style="fill:#EF4444;fill:color(display-p3 0.9373 0.2667 0.2667);fill-opacity:1;"/>
<path d="M240.047 159.411C240.983 160.81 242.556 161.65 244.239 161.65H310.035C315.607 161.65 320.125 166.167 320.125 171.74V258.37H165.62V160.622C165.62 155.05 170.138 150.532 175.71 150.532L231.409 150.533C233.093 150.533 234.665 151.372 235.602 152.771L240.047 159.411Z" fill="url(#paint4_linear_4450_18483)" style="mix-blend-mode:overlay"/>
<path d="M239.927 178.046C240.864 179.443 242.436 180.281 244.117 180.281H316.972C322.545 180.281 327.062 184.799 327.062 190.372V285.486H158.684V178.279C158.684 172.706 163.201 168.188 168.774 168.189L230.625 168.189C232.307 168.189 233.878 169.027 234.815 170.424L239.927 178.046Z" fill="#EF4444" style="fill:#EF4444;fill:color(display-p3 0.9373 0.2667 0.2667);fill-opacity:1;"/>
<path d="M239.927 178.046C240.864 179.443 242.436 180.281 244.117 180.281H316.972C322.545 180.281 327.062 184.799 327.062 190.372V285.486H158.684V178.279C158.684 172.706 163.201 168.188 168.774 168.189L230.625 168.189C232.307 168.189 233.878 169.027 234.815 170.424L239.927 178.046Z" fill="url(#paint5_linear_4450_18483)" style="mix-blend-mode:overlay"/>
<path d="M239.797 200.249C240.734 201.645 242.304 202.482 243.985 202.482H324.539C330.112 202.482 334.629 207 334.629 212.572V317.021H151.116V199.406C151.116 193.834 155.633 189.316 161.206 189.316L229.768 189.317C231.449 189.317 233.019 190.154 233.956 191.55L239.797 200.249Z" fill="#EF4444" style="fill:#EF4444;fill:color(display-p3 0.9373 0.2667 0.2667);fill-opacity:1;"/>
<path d="M239.797 200.249C240.734 201.645 242.304 202.482 243.985 202.482H324.539C330.112 202.482 334.629 207 334.629 212.572V317.021H151.116V199.406C151.116 193.834 155.633 189.316 161.206 189.316L229.768 189.317C231.449 189.317 233.019 190.154 233.956 191.55L239.797 200.249Z" fill="url(#paint6_linear_4450_18483)" style="mix-blend-mode:overlay"/>
<path d="M110.755 237.558C110.755 230.592 116.402 224.945 123.368 224.945H362.377C369.343 224.945 374.989 230.592 374.989 237.558V272.873C374.989 279.839 369.343 285.486 362.377 285.486H123.368C116.402 285.486 110.755 279.839 110.755 272.873V237.558Z" fill="#FCFCFD" style="fill:#FCFCFD;fill:color(display-p3 0.9882 0.9882 0.9922);fill-opacity:1;"/>
<g filter="url(#filter2_d_4450_18483)">
<path d="M110.755 244.495C110.755 237.53 116.402 231.883 123.368 231.883H362.377C369.343 231.883 374.99 237.53 374.99 244.495V316.387C374.99 323.353 369.343 329 362.377 329H123.368C116.402 329 110.755 323.353 110.755 316.387V244.495Z" fill="url(#paint7_linear_4450_18483)"/>
</g>
<circle cx="201.566" cy="270.352" r="8.19821" fill="#8793A6" style="fill:#8793A6;fill:color(display-p3 0.5306 0.5780 0.6512);fill-opacity:1;"/>
<circle cx="284.179" cy="270.352" r="8.19821" fill="#8793A6" style="fill:#8793A6;fill:color(display-p3 0.5306 0.5780 0.6512);fill-opacity:1;"/>
<path d="M196.836 281.703V271.613C196.836 269 198.954 266.883 201.566 266.883C204.178 266.883 206.295 269 206.295 271.613V281.703C206.295 284.663 208.695 287.063 211.656 287.063H274.088C277.049 287.063 279.449 284.663 279.449 281.703V271.613C279.449 269 281.566 266.883 284.178 266.883C286.791 266.883 288.908 269 288.908 271.613V281.703C288.908 289.887 282.273 296.522 274.088 296.522H211.656C203.471 296.522 196.836 289.887 196.836 281.703Z" fill="url(#paint8_linear_4450_18483)"/>
</g>
<defs>
<filter id="filter0_d_4450_18483" x="0" y="0" width="478" height="478" filterUnits="userSpaceOnUse" color-interpolation-filters="sRGB">
<feFlood flood-opacity="0" result="BackgroundImageFix"/>
<feColorMatrix in="SourceAlpha" type="matrix" values="0 0 0 0 0 0 0 0 0 0 0 0 0 0 0 0 0 0 127 0" result="hardAlpha"/>
<feMorphology radius="4" operator="erode" in="SourceAlpha" result="effect1_dropShadow_4450_18483"/>
<feOffset dy="12"/>
<feGaussianBlur stdDeviation="16"/>
<feComposite in2="hardAlpha" operator="out"/>
<feColorMatrix type="matrix" values="0 0 0 0 0 0 0 0 0 0 0 0 0 0 0 0 0 0 0.1 0"/>
<feBlend mode="normal" in2="BackgroundImageFix" result="effect1_dropShadow_4450_18483"/>
<feBlend mode="normal" in="SourceGraphic" in2="effect1_dropShadow_4450_18483" result="shape"/>
</filter>
<filter id="filter1_d_4450_18483" x="115.549" y="112.767" width="252.755" height="140.502" filterUnits="userSpaceOnUse" color-interpolation-filters="sRGB">
<feFlood flood-opacity="0" result="BackgroundImageFix"/>
<feColorMatrix in="SourceAlpha" type="matrix" values="0 0 0 0 0 0 0 0 0 0 0 0 0 0 0 0 0 0 127 0" result="hardAlpha"/>
<feOffset dy="6"/>
<feGaussianBlur stdDeviation="6.11651"/>
<feComposite in2="hardAlpha" operator="out"/>
<feColorMatrix type="matrix" values="0 0 0 0 0 0 0 0 0 0 0 0 0 0 0 0 0 0 0.15 0"/>
<feBlend mode="normal" in2="BackgroundImageFix" result="effect1_dropShadow_4450_18483"/>
<feBlend mode="normal" in="SourceGraphic" in2="effect1_dropShadow_4450_18483" result="shape"/>
</filter>
<filter id="filter2_d_4450_18483" x="98.5224" y="225.65" width="288.7" height="121.583" filterUnits="userSpaceOnUse" color-interpolation-filters="sRGB">
<feFlood flood-opacity="0" result="BackgroundImageFix"/>
<feColorMatrix in="SourceAlpha" type="matrix" values="0 0 0 0 0 0 0 0 0 0 0 0 0 0 0 0 0 0 127 0" result="hardAlpha"/>
<feOffset dy="6"/>
<feGaussianBlur stdDeviation="6.11651"/>
<feComposite in2="hardAlpha" operator="out"/>
<feColorMatrix type="matrix" values="0 0 0 0 0 0 0 0 0 0 0 0 0 0 0 0 0 0 0.15 0"/>
<feBlend mode="normal" in2="BackgroundImageFix" result="effect1_dropShadow_4450_18483"/>
<feBlend mode="normal" in="SourceGraphic" in2="effect1_dropShadow_4450_18483" result="shape"/>
</filter>
<linearGradient id="paint0_linear_4450_18483" x1="265.857" y1="82" x2="265.857" y2="369.197" gradientUnits="userSpaceOnUse">
<stop offset="0.198738" stop-color="#EEF2F6" stop-opacity="0.6" style="stop-color:#EEF2F6;stop-color:color(display-p3 0.9333 0.9490 0.9647);stop-opacity:0.6;"/>
<stop offset="1" stop-color="#E7EDF3" style="stop-color:#E7EDF3;stop-color:color(display-p3 0.9067 0.9300 0.9533);stop-opacity:1;"/>
</linearGradient>
<linearGradient id="paint1_linear_4450_18483" x1="242.558" y1="132.242" x2="242.558" y2="226.837" gradientUnits="userSpaceOnUse">
<stop stop-color="#ABB6C4" style="stop-color:#ABB6C4;stop-color:color(display-p3 0.6706 0.7137 0.7686);stop-opacity:1;"/>
<stop offset="1" stop-color="#D6DCE6" style="stop-color:#D6DCE6;stop-color:color(display-p3 0.8379 0.8646 0.9018);stop-opacity:1;"/>
</linearGradient>
<linearGradient id="paint2_linear_4450_18483" x1="242.556" y1="132.242" x2="242.556" y2="226.837" gradientUnits="userSpaceOnUse">
<stop stop-color="#8793A6" style="stop-color:#8793A6;stop-color:color(display-p3 0.5306 0.5780 0.6512);stop-opacity:1;"/>
<stop offset="1" stop-color="#B5BFCC" style="stop-color:#B5BFCC;stop-color:color(display-p3 0.7098 0.7490 0.8000);stop-opacity:1;"/>
</linearGradient>
<linearGradient id="paint3_linear_4450_18483" x1="242.873" y1="133.911" x2="242.873" y2="169.491" gradientUnits="userSpaceOnUse">
<stop stop-opacity="0.2" style="stop-color:black;stop-opacity:0.2;"/>
<stop offset="1" stop-opacity="0.25" style="stop-color:black;stop-opacity:0.25;"/>
</linearGradient>
<linearGradient id="paint4_linear_4450_18483" x1="242.872" y1="148.136" x2="242.872" y2="188.428" gradientUnits="userSpaceOnUse">
<stop stop-opacity="0.1" style="stop-color:black;stop-opacity:0.1;"/>
<stop offset="1" stop-opacity="0.15" style="stop-color:black;stop-opacity:0.15;"/>
</linearGradient>
<linearGradient id="paint5_linear_4450_18483" x1="242.873" y1="165.582" x2="242.873" y2="209.408" gradientUnits="userSpaceOnUse">
<stop stop-opacity="0.05" style="stop-color:black;stop-opacity:0.05;"/>
<stop offset="1" stop-opacity="0.1" style="stop-color:black;stop-opacity:0.1;"/>
</linearGradient>
<linearGradient id="paint6_linear_4450_18483" x1="242.873" y1="186.479" x2="242.873" y2="234.194" gradientUnits="userSpaceOnUse">
<stop stop-opacity="0" style="stop-color:none;stop-opacity:0;"/>
<stop offset="1" stop-opacity="0.05" style="stop-color:black;stop-opacity:0.05;"/>
</linearGradient>
<linearGradient id="paint7_linear_4450_18483" x1="242.873" y1="231.883" x2="242.873" y2="329" gradientUnits="userSpaceOnUse">
<stop stop-color="#EEF2F6" style="stop-color:#EEF2F6;stop-color:color(display-p3 0.9333 0.9490 0.9647);stop-opacity:1;"/>
<stop offset="1" stop-color="#D6DCE6" style="stop-color:#D6DCE6;stop-color:color(display-p3 0.8379 0.8646 0.9018);stop-opacity:1;"/>
</linearGradient>
<linearGradient id="paint8_linear_4450_18483" x1="242.872" y1="266.883" x2="242.872" y2="296.522" gradientUnits="userSpaceOnUse">
<stop offset="0.613312" stop-color="#C5CDD7" style="stop-color:#C5CDD7;stop-color:color(display-p3 0.7725 0.8039 0.8431);stop-opacity:1;"/>
<stop offset="1" stop-color="#9AA4B2" style="stop-color:#9AA4B2;stop-color:color(display-p3 0.6039 0.6431 0.6980);stop-opacity:1;"/>
</linearGradient>
</defs>
</svg>
